<svg version="1" xmlns="http://www.w3.org/2000/svg" width="668" height="668" viewBox="0 0 501.000000 501.000000"><path d="M223.4 33c-15.6 2.1-35.5 8.6-45.5 15.1-9.9 6.3-13.4 13.3-8.9 17.4 1.8 1.7 2.7 1.7 8.4.7 15.1-2.8 28.1-.5 45.5 8 16.8 8.2 25.6 18.2 29.6 33.5 1.9 7.1 1.9 24.8.2 32.4l-1.4 5.6 22.1 13 22.1 13 3.1-4.6c9.2-13.6 19.8-17.2 32.2-11 10.1 5 15.4 13.3 15.8 24.9l.3 6.5 20.6 12.2c11.4 6.8 21 12.3 21.4 12.3.3 0 11.3-18.3 24.5-40.6 19.8-33.7 23.6-40.8 22.5-41.8-.8-.7-10.1-6.4-20.8-12.6l-19.4-11.4-6.1 2.3c-12.9 4.9-16.9 5.1-23.3 1.1-4.9-3-6.5-6.2-7.4-15.7-.5-4.7-1.4-9.2-2-9.9-1.6-1.9-65-39.1-72.2-42.4-16.7-7.5-40.9-10.6-61.3-8z"/><path d="M142.9 71.3c-15.3 9.2-25.9 17.5-40 31.6-12 12-26.9 30.4-26.9 33.3 0 3.2 28.9 34.4 31.1 33.6.4-.2 3.9-5.2 7.9-11.2 23.1-34.6 60.8-59.9 101.8-68.5l8.3-1.7-8.8-4.2c-15.6-7.3-24.8-8.8-38.2-6.1-4.8.9-7.1.9-10.1 0-5-1.5-9.9-5.6-11.6-9.8-.8-1.8-1.8-3.3-2.3-3.3-.4 0-5.5 2.8-11.2 6.3zM369 80.6c.6 1.4 1 4.9 1 7.9 0 6.3 1.3 10.3 3.6 11.2 1.6.6 15.2-3.5 16-4.8.5-.9-19.3-16.9-20.9-16.9-.4 0-.2 1.2.3 2.6z"/><path d="M227.5 104.6c-32.1 5-60.8 20.2-83.9 44.5-19.4 20.4-31.1 42.5-37.6 71.4-2.7 11.6-3.7 35.6-2.1 48 2.4 18 8.9 38.1 17.3 53.3 3.3 6 4.3 7.1 5.3 6 .6-.7 8.2-12.3 16.7-25.8l15.6-24.5-1.4-6.5c-9-42.6 12.1-86.1 51.1-105.5 5-2.5 13.2-5.6 18.4-6.9 9.5-2.4 11.4-3.7 11.7-8.1.1-1.1 1.2-5.8 2.4-10.4 1.9-7.1 2.2-10.3 1.8-19-.5-10.9-2.5-18.2-5-18-.7.1-5.3.7-10.3 1.5z"/><path d="M62.1 157.7C40.3 201.4 34.7 254.9 47 302.6c7.3 28.1 21.3 56.4 39 78.6 5.2 6.5 7 7.5 7 4 0-3 5.7-13.8 14.1-26.9 4.5-7.1 8.2-13.3 8.2-13.8 0-.6-1.9-4.2-4.3-8-27.1-43.8-31.9-98.4-12.9-146.4l3-7.7-12.8-12.7c-7-6.9-14.4-14.7-16.3-17.1-1.9-2.5-3.8-4.5-4.2-4.6-.4 0-3 4.4-5.7 9.7zM421.7 179.8l-14.6 24.7 1.9 7.5c3.3 13.1 4.4 23.1 4.4 39 0 16.3-1 24.2-5 40.3-13.1 52.4-55.3 97.5-107.3 114.6-17.9 5.9-29.3 7.6-51.1 7.6-22.2 0-34.2-1.9-51.9-8-5.5-1.9-10.4-3.5-10.8-3.5-.4 0-3 4.2-5.6 9.4-5.3 10.1-11.3 17.6-19 23.7l-4.9 3.9 6.9 3.1c31.7 14.3 72.7 20.7 108.1 16.8 87.2-9.6 159.4-72.5 180.6-157.5 4.4-17.6 5.9-30.4 5.9-50.9 0-26.5-3.2-45.7-11.7-70.1-3.4-9.8-10.2-25.4-11-25.4-.2 0-6.9 11.1-14.9 24.8z"/><path d="M315.4 165.9c-1.7 1-4.1 3.3-5.4 5l-2.2 3.2 2.9 2.1c14.1 10.6 27.9 31.8 32.8 50.4 10.2 38.9-5.6 81.2-38.4 103.3-8 5.4-21.3 11.7-28 13.3-2.8.6-5.1 1.6-5.1 2.1 0 1.2 9.8 16 15.1 22.8 7.6 9.7 16.6 18.9 18.3 18.9 3.1 0 23.6-11.1 31.9-17.3 40.2-29.7 62.4-75.5 60.4-124.7-.5-11.9-2.1-24.6-2.6-20.5-.5 4.3-2 3.7-32.1-14-26.8-15.8-30.1-18.1-29.5-19.9 1.7-5.9 1.7-13.4 0-17-3.5-7.3-12.6-11.2-18.1-7.7zM242.2 167.7C231.3 183.5 107 379.8 105.1 384.4c-2.2 5.1-2.6 7.7-2.6 15.6 0 8.4.3 10.2 2.8 15.2 3.3 6.8 9 12.1 16.6 15.6 4.4 2.1 7.2 2.6 13.1 2.7 10.3 0 18.3-3.9 26.6-12.8 5.4-5.7 11.3-16.6 64.7-118.3C258.6 240.7 285 190 285 189.7c0-.4-7.8-5.2-17.2-10.8-9.5-5.6-18.7-11-20.5-12.1l-3.1-1.9-2 2.8zM206.7 363.3c-6.4 12.3-11.7 22.9-11.7 23.4 0 1.3 16.6 6.7 27 8.9 4.1.8 14.9 1.7 24 2.1 14 .4 18.4.2 28.7-1.5 6.7-1.2 13.5-2.7 15.2-3.4l3.1-1.3-5.7-6.5c-7.7-8.8-16.4-20.7-22.6-30.7l-5.1-8.4-4.1.6c-6.8 1.1-27.5-1.9-35.5-5-1.2-.4-4.3 4.6-13.3 21.8z"/></svg>